<?xml version="1.0" standalone="no"?>
<!DOCTYPE svg PUBLIC "-//W3C//DTD SVG 20010904//EN"
 "http://www.w3.org/TR/2001/REC-SVG-20010904/DTD/svg10.dtd">
<svg version="1.0" xmlns="http://www.w3.org/2000/svg"
 width="978.893545pt" height="947.426250pt" viewBox="0 0 978.893545 947.426250"
 preserveAspectRatio="xMidYMid meet">
<metadata>
Created by potrace 1.12, written by Peter Selinger 2001-2015
</metadata>
<g transform="translate(-10.174030,959.863571) scale(0.100000,-0.100000)"
fill="#000000" stroke="none">
<path d="M4799 9596 c-3 -3 -63 -8 -134 -11 -948 -38 -1927 -308 -2777 -765
-512 -275 -941 -583 -1386 -992 -161 -149 -406 -403 -400 -417 3 -8 346 -628
883 -1595 165 -297 305 -542 312 -544 6 -2 40 39 74 90 430 643 985 1139 1663
1487 987 507 2181 609 3251 280 238 -74 665 -252 665 -277 0 -5 -51 -100 -113
-213 -63 -112 -257 -463 -432 -779 -175 -316 -364 -658 -421 -760 -56 -102
-253 -457 -437 -790 -184 -333 -366 -661 -404 -730 -38 -69 -85 -153 -103
-188 -18 -34 -38 -61 -44 -59 -5 2 -40 57 -76 123 -199 357 -397 716 -512 924
-72 129 -154 278 -183 330 -118 211 -200 360 -251 453 -64 115 -134 242 -262
472 -52 94 -137 247 -188 342 -52 94 -102 177 -110 184 -18 15 -54 0 -206 -88
-545 -312 -1026 -793 -1330 -1328 -62 -109 -141 -267 -141 -279 0 -6 104 -198
230 -426 554 -1000 650 -1173 818 -1475 98 -176 226 -408 285 -515 59 -107
162 -294 230 -415 67 -121 206 -371 308 -555 101 -184 203 -360 225 -390 113
-152 306 -308 502 -405 147 -73 234 -104 385 -136 151 -33 437 -33 590 0 255
54 468 157 659 316 133 112 126 100 543 855 353 638 1045 1887 1783 3220 309
558 679 1227 822 1485 143 259 376 678 517 933 l257 463 -125 132 c-228 242
-549 526 -835 740 -1020 762 -2269 1220 -3516 1289 -235 12 -608 21 -616 14z"/>
</g>
</svg>
