<?xml version="1.0" standalone="no"?>
<!DOCTYPE svg PUBLIC "-//W3C//DTD SVG 20010904//EN"
 "http://www.w3.org/TR/2001/REC-SVG-20010904/DTD/svg10.dtd">
<svg version="1.0" xmlns="http://www.w3.org/2000/svg"
 width="979.964123pt" height="949.763015pt" viewBox="0 0 979.964123 949.763015"
 preserveAspectRatio="xMidYMid meet">
<metadata>
Created by potrace 1.12, written by Peter Selinger 2001-2015
</metadata>
<g transform="translate(-10.035877,959.763015) scale(0.100000,-0.100000)"
fill="#000000" stroke="none">
<path d="M4547 9594 c-4 -4 -62 -11 -130 -15 -158 -9 -517 -51 -587 -69 -19
-4 -69 -14 -110 -20 -41 -6 -104 -20 -140 -30 -64 -19 -120 -33 -275 -70 -70
-17 -160 -41 -355 -96 -30 -9 -64 -21 -75 -28 -11 -7 -42 -20 -70 -29 -113
-35 -418 -152 -450 -171 -11 -7 -83 -41 -160 -76 -141 -64 -171 -79 -415 -210
-74 -40 -148 -79 -165 -88 -16 -9 -50 -30 -75 -48 -25 -17 -85 -56 -135 -86
-49 -29 -117 -74 -149 -98 -33 -25 -99 -72 -147 -105 -255 -174 -581 -455
-861 -740 -147 -150 -147 -150 -148 -197 0 -40 9 -63 60 -150 79 -134 113
-197 201 -370 10 -20 23 -40 29 -43 6 -3 18 -23 28 -43 20 -39 106 -203 133
-253 9 -16 28 -46 41 -67 13 -20 44 -75 67 -122 63 -123 112 -213 127 -230 6
-8 51 -89 99 -180 48 -91 93 -172 100 -180 7 -8 52 -89 100 -180 48 -91 93
-172 100 -180 7 -8 27 -43 44 -77 18 -34 39 -67 48 -74 25 -21 60 7 122 97
168 243 247 342 453 563 188 202 479 452 688 591 69 45 132 88 140 95 8 7 78
47 155 89 77 42 151 83 165 91 57 34 233 115 345 160 66 26 125 51 130 55 33
25 509 159 625 176 25 3 61 13 80 21 19 8 85 21 145 28 61 8 137 18 170 24 81
13 271 22 505 21 353 0 630 -26 816 -76 49 -13 99 -24 109 -24 11 0 62 -12
115 -26 52 -14 138 -37 190 -51 132 -35 258 -78 305 -102 21 -12 46 -21 55
-21 9 0 25 -6 36 -14 10 -8 62 -30 114 -51 104 -40 180 -80 180 -96 0 -12
-127 -247 -145 -269 -7 -8 -40 -67 -73 -130 -33 -63 -76 -142 -96 -175 -19
-33 -55 -98 -79 -145 -25 -47 -68 -125 -97 -175 -63 -109 -90 -157 -143 -255
-22 -41 -55 -102 -75 -135 -40 -69 -75 -134 -157 -290 -31 -60 -63 -117 -70
-125 -11 -13 -43 -70 -172 -310 -13 -25 -40 -72 -59 -105 -20 -33 -63 -112
-96 -175 -33 -63 -65 -122 -73 -130 -13 -16 -165 -298 -165 -307 0 -4 -11 -21
-25 -39 -14 -18 -25 -36 -25 -41 0 -5 -11 -24 -23 -43 -13 -19 -48 -82 -77
-140 -30 -58 -73 -134 -96 -170 -23 -36 -69 -120 -103 -187 -34 -68 -65 -123
-70 -123 -15 0 -38 34 -81 120 -23 47 -57 110 -75 140 -40 66 -59 101 -112
200 -50 95 -93 171 -108 190 -7 8 -49 87 -95 175 -45 88 -88 167 -96 175 -7 8
-41 69 -75 135 -53 102 -111 205 -149 265 -5 8 -46 85 -91 170 -45 85 -87 162
-94 170 -7 8 -52 89 -100 180 -48 91 -93 172 -100 180 -7 8 -41 69 -75 135
-84 160 -109 205 -131 237 -11 14 -19 28 -19 30 0 3 -30 61 -67 129 -38 69
-74 136 -82 151 -7 15 -26 32 -42 38 -25 11 -37 8 -96 -20 -70 -32 -96 -48
-273 -162 -231 -148 -410 -295 -614 -502 -248 -252 -451 -523 -598 -796 -25
-47 -60 -110 -77 -140 -17 -30 -31 -66 -31 -80 0 -14 25 -68 56 -119 30 -52
73 -129 95 -172 21 -43 65 -122 97 -176 32 -54 87 -152 121 -218 35 -66 69
-127 76 -135 7 -8 54 -94 105 -190 51 -96 96 -180 102 -187 5 -7 18 -27 27
-45 10 -18 29 -53 43 -78 13 -25 42 -79 64 -120 21 -41 56 -102 76 -135 21
-33 59 -100 84 -150 25 -49 71 -133 101 -185 64 -110 98 -172 154 -279 22 -42
54 -98 71 -126 16 -27 55 -97 85 -155 31 -58 75 -136 98 -175 23 -38 79 -140
125 -225 45 -85 90 -166 100 -180 10 -14 36 -61 58 -105 22 -45 64 -121 93
-170 29 -50 63 -110 75 -133 186 -351 305 -499 555 -684 72 -53 301 -159 437
-202 82 -26 88 -26 377 -26 289 0 295 0 377 26 101 32 173 62 298 124 116 58
152 81 260 173 111 95 138 124 223 239 85 116 107 151 177 283 29 55 74 136
100 180 26 44 74 132 107 195 65 125 100 187 118 210 7 8 36 62 65 120 53 104
113 211 136 240 6 8 38 67 70 130 32 63 75 142 95 175 20 33 58 101 84 150 26
50 59 110 73 135 14 25 61 108 103 185 42 77 103 185 135 240 32 55 86 152
119 215 67 127 103 190 115 205 5 6 45 82 89 169 44 88 89 169 99 180 11 12
45 70 76 129 77 147 117 219 132 237 6 8 40 69 73 135 34 66 74 141 89 166 25
43 92 164 157 284 15 28 37 66 49 86 67 116 98 172 132 239 20 41 52 99 71
128 19 29 60 104 92 165 33 62 75 139 94 172 20 33 59 103 88 155 87 159 143
259 171 308 16 26 49 87 74 136 40 78 83 153 132 231 7 11 33 61 57 110 25 50
57 110 72 135 53 89 193 343 193 350 0 4 13 25 28 46 16 22 66 111 111 199 46
88 88 165 93 172 40 50 78 130 78 164 0 36 -10 48 -193 231 -265 265 -639 583
-862 732 -38 25 -111 74 -161 109 -145 98 -292 191 -379 237 -44 24 -132 71
-195 106 -64 35 -179 92 -255 127 -77 35 -179 83 -227 106 -48 23 -150 64
-225 91 -76 27 -169 61 -208 75 -136 53 -242 86 -380 121 -77 19 -169 43 -205
54 -36 10 -85 22 -110 25 -25 4 -63 14 -85 22 -36 12 -136 33 -305 62 -30 5
-93 14 -140 20 -47 5 -125 15 -175 22 -49 6 -144 16 -210 21 -151 12 -1028 21
-1038 12z"/>
</g>
</svg>
